<svg xmlns="http://www.w3.org/2000/svg" viewBox="0 0 32 32" width="32" height="32">
  <!-- Stylized leaf/petal shape for P(o) životě festival favicon -->
  <!-- Main leaf shape -->
  <path d="M16 3 C10 3, 4 8, 4 16 C4 22, 8 28, 16 29 C24 28, 28 22, 28 16 C28 8, 22 3, 16 3 Z" fill="#6B8F71" opacity="0.15"/>
  <!-- Elegant leaf veins / petal -->
  <path d="M16 28 C16 28, 7 22, 7 14 C7 9, 11 5, 16 4 C16 4, 16 14, 16 28 Z" fill="#6B8F71" opacity="0.55"/>
  <path d="M16 28 C16 28, 25 22, 25 14 C25 9, 21 5, 16 4 C16 4, 16 14, 16 28 Z" fill="#6B8F71" opacity="0.35"/>
  <!-- Central vein -->
  <line x1="16" y1="4" x2="16" y2="27" stroke="#6B8F71" stroke-width="0.8" opacity="0.9"/>
  <!-- Small decorative element at top - dewdrop -->
  <circle cx="16" cy="3.5" r="1.5" fill="#6B8F71" opacity="0.7"/>
</svg>
